<svg width="36" height="35" viewBox="0 0 36 35" fill="none" xmlns="http://www.w3.org/2000/svg">
<path d="M31 15C31 11.5522 29.6304 8.24558 27.1924 5.80761C24.7544 3.36964 21.4478 2 18 2C14.5522 2 11.2456 3.36964 8.80761 5.80761C6.36964 8.24558 5 11.5522 5 15" stroke="#37456C" stroke-width="3" stroke-linecap="round" stroke-linejoin="round"/>
<path d="M30.8 25.9815V26.7852C30.8 27.6378 30.4629 28.4555 29.8627 29.0584C29.2626 29.6613 28.4487 30 27.6 30H22M2 21.8633V18.8478C2.00011 18.1309 2.23873 17.4346 2.67793 16.8696C3.11713 16.3046 3.73171 15.9033 4.424 15.7294L7.208 15.0286C7.34947 14.9932 7.4971 14.9906 7.6397 15.0211C7.78229 15.0516 7.91611 15.1143 8.031 15.2044C8.14589 15.2946 8.23882 15.4099 8.30276 15.5415C8.36669 15.6731 8.39995 15.8176 8.4 15.9641V24.7454C8.40025 24.8922 8.36716 25.037 8.30323 25.169C8.23931 25.301 8.14625 25.4166 8.03114 25.507C7.91603 25.5973 7.7819 25.6601 7.63898 25.6905C7.49605 25.721 7.3481 25.7182 7.2064 25.6825L4.4224 24.9833C3.73041 24.8091 3.11619 24.4077 2.6773 23.8427C2.23841 23.2777 2.00002 22.5816 2 21.8649V21.8633ZM34 21.8633V18.8478C33.9999 18.1309 33.7613 17.4346 33.3221 16.8696C32.8829 16.3046 32.2683 15.9033 31.576 15.7294L28.792 15.0286C28.6505 14.9932 28.5029 14.9906 28.3603 15.0211C28.2177 15.0516 28.0839 15.1143 27.969 15.2044C27.8541 15.2946 27.7612 15.4099 27.6972 15.5415C27.6333 15.6731 27.6001 15.8176 27.6 15.9641V24.7454C27.5998 24.892 27.6329 25.0367 27.6967 25.1685C27.7605 25.3003 27.8535 25.4158 27.9684 25.5062C28.0833 25.5965 28.2172 25.6593 28.3599 25.6899C28.5026 25.7205 28.6504 25.7179 28.792 25.6825L31.576 24.9833C32.2683 24.8094 32.8829 24.4081 33.3221 23.8431C33.7613 23.2781 33.9999 22.5818 34 21.8649V21.8633Z" stroke="#37456C" stroke-width="3"/>
<path d="M20.5 33H15.5C14.837 33 14.2011 32.7366 13.7322 32.2678C13.2634 31.7989 13 31.163 13 30.5C13 29.837 13.2634 29.2011 13.7322 28.7322C14.2011 28.2634 14.837 28 15.5 28H20.5C21.163 28 21.7989 28.2634 22.2678 28.7322C22.7366 29.2011 23 29.837 23 30.5C23 31.163 22.7366 31.7989 22.2678 32.2678C21.7989 32.7366 21.163 33 20.5 33Z" stroke="#37456C" stroke-width="3"/>
</svg>
