<svg width="39" height="28" viewBox="0 0 39 28" fill="none" xmlns="http://www.w3.org/2000/svg">
<path d="M2 9.99986V5.99993C2 4.93908 2.40972 3.92168 3.13903 3.17155C3.86834 2.42142 4.85749 2 5.88889 2H9.77778M2 9.99986C4.59194 9.99986 9.77778 8.39989 9.77778 2M2 9.99986V17.9997M9.77778 2H29.2222M2 17.9997V21.9997C2 23.0605 2.40972 24.0779 3.13903 24.828C3.86834 25.5782 4.85749 25.9996 5.88889 25.9996H9.77778M2 17.9997C4.59194 17.9997 9.77778 19.5997 9.77778 25.9996M37 9.99986V5.99993C37 4.93908 36.5903 3.92168 35.861 3.17155C35.1317 2.42142 34.1425 2 33.1111 2H29.2222M37 9.99986C34.4081 9.99986 29.2222 8.39989 29.2222 2M37 9.99986V13.9998M9.77778 25.9996H17.5556" stroke="#FE1010" stroke-width="3" stroke-linecap="round" stroke-linejoin="round"/>
<path d="M20 18C22.2091 18 24 16.2091 24 14C24 11.7909 22.2091 10 20 10C17.7909 10 16 11.7909 16 14C16 16.2091 17.7909 18 20 18Z" stroke="#FE1010" stroke-width="3" stroke-linecap="round" stroke-linejoin="round"/>
<path d="M25 26H31H37" stroke="#FE1010" stroke-width="3" stroke-linecap="round" stroke-linejoin="round"/>
</svg>
