<svg width="37" height="32" viewBox="0 0 37 32" fill="none" xmlns="http://www.w3.org/2000/svg">
<path d="M1 8.99997V4.99999C1 3.93912 1.40972 2.92171 2.13903 2.17157C2.86834 1.42143 3.85749 1 4.88889 1H8.77778M1 8.99997C3.59194 8.99997 8.77778 7.39998 8.77778 1M1 8.99997V16.9999M8.77778 1H28.2222M1 16.9999V20.9999C1 22.0608 1.40972 23.0782 2.13903 23.8284C2.86834 24.5785 3.85749 24.9999 4.88889 24.9999H8.77778M1 16.9999C3.59194 16.9999 8.77778 18.5999 8.77778 24.9999M36 8.99997V4.99999C36 3.93912 35.5903 2.92171 34.861 2.17157C34.1317 1.42143 33.1425 1 32.1111 1H28.2222M36 8.99997C33.4081 8.99997 28.2222 7.39998 28.2222 1M36 8.99997V13M8.77778 24.9999H16.5556" stroke="#24FE00" stroke-width="2" stroke-linecap="round" stroke-linejoin="round"/>
<path d="M19 17C21.2091 17 23 15.2091 23 13C23 10.7909 21.2091 9 19 9C16.7909 9 15 10.7909 15 13C15 15.2091 16.7909 17 19 17Z" stroke="#24FE00" stroke-width="2" stroke-linecap="round" stroke-linejoin="round"/>
<path d="M30 25H36M30 19V25V19ZM30 31V25V31ZM30 25H24H30Z" stroke="#24FE00" stroke-width="2" stroke-linecap="round" stroke-linejoin="round"/>
</svg>
