<svg width="200" height="90" viewBox="0 0 200 90" fill="none" xmlns="http://www.w3.org/2000/svg">
<path d="M152.948 55.6168C156.491 55.6168 158.466 58.2347 158.466 61.4926C158.466 61.8998 158.408 62.3071 158.35 62.7143H149.811C149.985 64.8668 151.67 66.0304 153.529 66.0304C154.807 66.0304 156.085 65.4486 157.072 64.6923L158.292 66.903C157.014 68.0084 155.097 68.7065 153.297 68.7065C149.172 68.7065 146.616 65.7395 146.616 62.1907C146.616 58.2929 149.23 55.6168 152.948 55.6168ZM180.424 55.6168C183.967 55.6168 185.942 58.2347 185.942 61.4926C185.942 61.8998 185.884 62.3071 185.826 62.7143H177.287C177.462 64.8668 179.146 66.0304 181.005 66.0304C182.283 66.0304 183.561 65.4486 184.548 64.6923L185.768 66.903C184.49 68.0084 182.573 68.7065 180.773 68.7065C176.648 68.7065 174.092 65.7395 174.092 62.1907C174.092 58.2929 176.706 55.6168 180.424 55.6168ZM118.211 55.6168C121.987 55.6168 125.065 58.3511 125.065 62.1325C125.065 65.9722 122.045 68.6483 118.269 68.6483C114.493 68.6483 111.473 65.9722 111.473 62.1325C111.414 58.2929 114.435 55.6168 118.211 55.6168ZM171.595 55.9076V68.3574H168.516V58.4092H165.495V59.8055C165.495 65.2159 164.043 68.3574 159.919 68.4738V65.7395C161.429 65.5068 162.533 64.2269 162.533 59.8055V55.9076H171.595ZM101.133 51.0208V58.0602H103.398L107.464 51.0208H110.892L106.012 59.2819V59.3401L111.182 68.3574H107.639L103.456 60.7945H101.191V68.3574H98.054V51.0208H101.133ZM130.468 55.9076V65.6813H134.36V55.9076H137.322V65.6813H141.214V55.9076H144.177V68.3574H127.621V55.9076H130.468ZM191.577 55.9076V60.6781H193.087L196.108 55.9076H199.535L195.585 61.8416V61.8998L200 68.3574H196.398L193.146 63.2961H191.519V68.3574H188.44V55.9076H191.577ZM118.211 58.1765C116.178 58.1765 114.551 59.7473 114.551 62.0744C114.551 64.4014 116.178 65.9722 118.211 65.9722C120.244 65.9722 121.929 64.4014 121.929 62.0744C121.929 59.8055 120.244 58.1765 118.211 58.1765ZM152.832 57.9438C151.263 57.9438 150.102 58.991 149.811 60.5618H155.33C155.33 58.9328 154.226 57.9438 152.832 57.9438ZM180.308 57.9438C178.739 57.9438 177.578 58.991 177.287 60.5618H182.806C182.806 58.9328 181.702 57.9438 180.308 57.9438Z" fill="#2D3540"/>
<path d="M39.9651 0C62.0389 0 79.9303 17.9184 79.9303 40.0254C79.9303 47.5302 77.8391 54.5696 74.2957 60.5618C74.1795 60.7363 73.8891 60.6781 73.831 60.4454C72.4368 50.6136 66.4537 45.2032 57.7404 43.5742C56.9852 43.4579 56.869 42.9925 57.8565 42.8761C60.5286 42.6434 64.3044 42.7016 66.2794 43.0506C66.3956 42.0616 66.4537 41.0145 66.4537 39.9673C66.4537 25.365 54.6035 13.497 40.0232 13.497C25.4429 13.497 13.5928 25.365 13.5928 39.9673C13.5928 54.5696 25.4429 66.4376 40.0232 66.4376H41.2431C40.7784 63.8778 40.6622 61.2599 40.7203 59.2819C40.7784 57.6529 41.1269 57.4202 41.824 58.7001C45.4836 65.0414 50.7116 70.7427 60.9352 73.0115C69.3 74.8732 77.6648 77.0257 86.6686 88.4865C87.4819 89.4755 86.262 90.5227 85.3326 89.7082C76.1545 81.5635 67.7897 78.8874 60.1801 78.8874C51.641 78.9455 45.8321 80.0509 39.9651 80.0509C17.8914 80.0509 0 62.1325 0 40.0254C0 17.9184 17.8914 0 39.9651 0ZM60.2963 63.2379C61.2257 63.2379 62.2713 63.6451 63.2007 64.4596C65.0015 65.9722 65.5243 67.7175 64.5948 68.9974C64.072 69.6373 63.2007 70.0445 62.2132 70.0445C61.2257 70.0445 60.1801 69.6955 59.483 69.0555C57.8565 67.6593 57.3918 65.3322 58.4374 64.0524C58.844 63.5288 59.483 63.2379 60.2963 63.2379ZM69.1258 56.6639C70.6361 57.2457 71.217 59.5146 71.3332 60.5036C71.5655 62.3071 71.0427 63.0052 70.4618 63.0052C69.8809 63.0052 69.0677 62.3071 68.1964 60.9108C67.325 59.5146 66.9765 57.9438 67.4412 57.1293C67.7316 56.6058 68.3706 56.373 69.1258 56.6639ZM111.763 11.6935C120.709 11.6935 127.97 18.9655 127.97 27.9247C127.97 31.1244 127.04 34.1496 125.414 36.7094L130.293 42.4107C130.642 42.8179 130.351 43.3997 129.829 43.3997H122.509C122.219 43.3997 121.929 43.2833 121.754 43.0506L120.534 41.538C117.979 43.167 114.958 44.156 111.763 44.156C102.817 44.156 95.5562 36.8839 95.5562 27.9247C95.5562 18.9655 102.817 11.6935 111.763 11.6935ZM140.575 12.4498C141.04 12.4498 141.388 12.7988 141.388 13.2642V42.6434C141.388 43.1088 141.04 43.4579 140.575 43.4579H134.592C134.127 43.4579 133.779 43.1088 133.779 42.6434V13.2642C133.779 12.7988 134.127 12.4498 134.592 12.4498H140.575ZM151.496 12.4498C151.786 12.4498 152.036 12.6114 152.179 12.8672L152.251 13.0315L157.537 30.4263L163.346 13.0315C163.439 12.7988 163.643 12.6034 163.9 12.5345L164.101 12.508H168.806C169.085 12.508 169.327 12.6197 169.472 12.843L169.561 13.0315L175.37 30.4263L180.656 13.0315C180.753 12.7407 180.971 12.5306 181.243 12.4686L181.412 12.4498H188.092C188.324 12.4498 188.615 12.5661 188.905 12.7988C189.044 12.9385 189.072 13.1525 189.048 13.3517L189.021 13.497L179.146 42.9343C179.053 43.167 178.849 43.3624 178.592 43.4313L178.391 43.4579H173.047C172.768 43.4579 172.526 43.3462 172.381 43.1228L172.292 42.9343L166.541 25.7722L160.79 42.9343C160.697 43.167 160.493 43.3624 160.236 43.4313L160.035 43.4579H154.691C154.412 43.4579 154.17 43.3462 154.025 43.1228L153.936 42.9343L144.06 13.497C144.002 13.2642 144.002 13.0315 144.177 12.7988C144.27 12.6127 144.474 12.501 144.671 12.4637L144.816 12.4498H151.496ZM198.199 12.4498C198.548 12.4498 198.854 12.7062 198.971 13.0726L199.013 13.2642V42.6434C199.013 43.0506 198.746 43.3688 198.368 43.442L198.199 43.4579H192.216C191.809 43.4579 191.492 43.1906 191.419 42.812L191.403 42.6434V13.2642C191.403 12.857 191.67 12.5389 192.048 12.4657L192.216 12.4498H198.199ZM111.763 18.9074C106.825 18.9074 103.224 23.0961 103.224 27.9247C103.224 32.7534 106.825 36.8839 111.763 36.8839C113.157 36.9421 114.551 36.5349 115.771 35.8949L112.576 31.9971C112.228 31.5899 112.518 30.9499 113.041 30.9499H119.779C120.128 30.0191 120.302 28.9719 120.302 27.9247C120.302 23.0961 116.701 18.9074 111.763 18.9074Z" fill="#FF8C00"/>
</svg>
