<svg width="1336" height="73" viewBox="0 0 1336 73" fill="none" xmlns="http://www.w3.org/2000/svg">
<path d="M1332.18 0.5L0 3V38L6.68 33.5L1334.09 17L1332.18 0.5Z" fill="#0C1224"/>
<path d="M1335.05 54.5L6.68 54L0 52V72.5H1335.05V54.5Z" fill="#0C1224"/>
<path d="M6.33399 34.4148L1329.53 16.5873C1330.69 16.5716 1331.47 16.5623 1332.07 16.6035C1332.65 16.6434 1332.93 16.725 1333.11 16.8161C1333.59 17.0534 1333.98 17.4368 1334.22 17.9103C1334.32 18.0922 1334.4 18.3693 1334.45 18.9509C1334.5 19.5498 1334.5 20.3281 1334.5 21.4868V48.6C1334.5 49.7449 1334.5 50.5133 1334.45 51.105C1334.4 51.6793 1334.32 51.9539 1334.23 52.135C1333.99 52.6054 1333.61 52.9878 1333.14 53.2275C1332.95 53.3198 1332.68 53.4036 1332.11 53.4505C1331.51 53.4988 1330.74 53.5 1329.6 53.5H6.40001C5.25515 53.5 4.48672 53.4988 3.89496 53.4505C3.32071 53.4036 3.04614 53.3198 2.86502 53.2275C2.39462 52.9878 2.01217 52.6054 1.77248 52.135C1.6802 51.9539 1.59643 51.6793 1.54952 51.105C1.50117 50.5133 1.5 49.7449 1.5 48.6V39.3144C1.5 38.1832 1.50115 37.4245 1.54866 36.8399C1.59472 36.2729 1.67695 36.0008 1.76791 35.8205C2.00362 35.3532 2.38002 34.9717 2.84407 34.7298C3.02315 34.6364 3.29407 34.5505 3.86038 34.4968C4.44436 34.4414 5.20296 34.43 6.33399 34.4148Z" stroke="#007AFE" stroke-width="3"/>
</svg>
