<svg width="700" height="73" viewBox="0 0 700 73" fill="none" xmlns="http://www.w3.org/2000/svg">
<path d="M698 0.5L0 3V38L3.5 33.5L699 17L698 0.5Z" fill="#0C1224"/>
<path d="M699.5 54.5L3.5 54L0 52V72.5H699.5V54.5Z" fill="#0C1224"/>
<path d="M1.5 39.2375C1.5 38.1188 1.50114 37.3688 1.54788 36.7905C1.59318 36.2301 1.67404 35.9603 1.7638 35.7807C1.99592 35.3163 2.36686 34.9357 2.82512 34.6917C3.00233 34.5974 3.26995 34.5096 3.82906 34.4499C4.40596 34.3883 5.15562 34.3679 6.27404 34.3392L693.474 16.6683C694.645 16.6382 695.432 16.6191 696.039 16.6535C696.628 16.687 696.91 16.7665 697.095 16.8566C697.577 17.0916 697.971 17.4757 698.219 17.952C698.314 18.1346 698.4 18.414 698.449 19.0024C698.499 19.6079 698.5 20.3952 698.5 21.5667V48.6C698.5 49.7449 698.499 50.5133 698.451 51.105C698.404 51.6793 698.32 51.9539 698.228 52.135C697.988 52.6054 697.605 52.9878 697.135 53.2275C696.954 53.3198 696.679 53.4036 696.105 53.4505C695.513 53.4988 694.745 53.5 693.6 53.5H6.40001C5.25515 53.5 4.48672 53.4988 3.89496 53.4505C3.32071 53.4036 3.04614 53.3198 2.86502 53.2275C2.39462 52.9878 2.01217 52.6054 1.77248 52.135C1.6802 51.9539 1.59643 51.6793 1.54952 51.105C1.50117 50.5133 1.5 49.7449 1.5 48.6V39.2375Z" stroke="#007AFE" stroke-width="3"/>
</svg>
