<svg width="30" height="22" viewBox="0 0 30 22" fill="none" xmlns="http://www.w3.org/2000/svg">
<path fill-rule="evenodd" clip-rule="evenodd" d="M2.01362 9.47086C9.79823 6.36615 14.9892 4.31934 17.5865 3.33042C25.0023 0.506852 26.5433 0.0163687 27.5477 0.000172686C27.7686 -0.00338946 28.2625 0.0467251 28.5824 0.284372C28.8526 0.485037 28.9269 0.756106 28.9625 0.946358C28.998 1.13661 29.0423 1.57001 29.0071 1.90866C28.6053 5.7739 26.8664 15.1538 25.9817 19.483C25.6074 21.3148 24.8704 21.929 24.1568 21.9891C22.6061 22.1197 21.4285 21.051 19.9266 20.1497C17.5763 18.7394 16.2486 17.8615 13.9673 16.4853C11.3308 14.8949 13.0399 14.0208 14.5424 12.5922C14.9356 12.2184 21.7682 6.52943 21.9004 6.01335C21.9169 5.94881 21.9323 5.70822 21.7761 5.58118C21.62 5.45414 21.3896 5.49758 21.2233 5.53213C20.9875 5.5811 17.233 7.85279 9.95957 12.3472C8.89385 13.0171 7.92856 13.3435 7.06368 13.3264C6.11023 13.3075 4.27617 12.8329 2.91273 12.4272C1.24043 11.9296 -0.0886913 11.6665 0.0270451 10.8214C0.0873277 10.3812 0.749519 9.93102 2.01362 9.47086Z" fill="#3E4A6C"/>
</svg>
